<?xml version="1.0" standalone="no"?><!DOCTYPE svg PUBLIC "-//W3C//DTD SVG 1.1//EN" "http://www.w3.org/Graphics/SVG/1.1/DTD/svg11.dtd"><svg t="1553696692776" class="icon" style="" viewBox="0 0 1024 1024" version="1.1" xmlns="http://www.w3.org/2000/svg" p-id="2154" xmlns:xlink="http://www.w3.org/1999/xlink" width="64" height="64"><defs><style type="text/css"></style></defs><path d="M512 530.432c132.096 0 239.616-158.72 239.616-290.816 0-132.608-107.52-239.616-239.616-239.616S272.384 107.008 272.384 239.616c0 132.096 107.52 290.816 239.616 290.816zM918.016 747.52c-3.072-4.608-6.656-8.704-10.24-13.312-76.8-93.184-225.28-156.16-395.776-156.16s-318.976 62.976-395.776 156.16c-3.584 4.608-7.168 8.704-10.24 13.312-10.24 15.872-16.384 34.816-16.384 55.296V922.112c0 56.32 45.568 101.888 101.888 101.888h642.048c56.32 0 101.888-45.568 101.888-101.888V802.816c-0.512-20.48-6.656-39.424-17.408-55.296z" p-id="2155" fill="#2c2c2c"></path></svg>